<svg width="102" height="29" viewBox="0 0 102 29" fill="none" xmlns="http://www.w3.org/2000/svg">
<g clip-path="url(#clip0_10_242)">
<path d="M0.0038098 10.7723C0.0038098 7.61685 0.0038098 4.46144 0.0038098 1.30604C0.0038098 0.581163 0.209796 0.374416 0.938376 0.375677C3.98748 0.38072 7.03658 0.36181 10.0844 0.404672C11.4335 0.423582 12.7482 0.712271 13.9091 1.44597C15.7033 2.58055 16.4191 4.25218 16.3505 6.31838C16.3034 7.75678 15.5303 8.78043 14.5004 9.67549C14.4381 9.7297 14.3694 9.77509 14.3071 9.82677C13.9931 10.0902 13.9994 10.244 14.3605 10.4483C15.4922 11.0887 16.3644 11.9585 16.7561 13.2141C17.3931 15.2526 17.0905 18.8266 14.11 20.3179C12.9441 20.9016 11.6929 21.1487 10.4112 21.1625C7.18789 21.1966 3.96332 21.1802 0.738748 21.1802C0.293716 21.1802 0.0292402 20.9268 0.00889588 20.483C-0.00636235 20.1666 0.0038098 19.8502 0.0038098 19.5338C0.0038098 16.6129 0.0038098 13.6919 0.0038098 10.771V10.7723ZM8.00421 15.9598C8.52935 15.9598 9.05448 15.9712 9.57962 15.9561C10.5205 15.9296 11.2288 15.0005 10.9643 14.1571C10.7342 13.4196 10.1327 12.9708 9.35329 12.9671C8.39584 12.962 7.43838 12.9645 6.48093 12.9671C5.96596 12.9683 5.69386 13.2293 5.6875 13.7323C5.68114 14.2227 5.68114 14.7118 5.6875 15.2022C5.69386 15.6863 5.96724 15.9535 6.46058 15.9586C6.97555 15.9649 7.49052 15.9598 8.00548 15.9598H8.00421ZM7.76135 5.60359C7.30869 5.60359 6.85603 5.59729 6.40337 5.60485C5.98122 5.61116 5.70276 5.87337 5.69004 6.28939C5.67733 6.72809 5.67606 7.1668 5.69004 7.60551C5.70403 7.99001 5.97105 8.26357 6.36013 8.26861C7.27563 8.28121 8.19239 8.2913 9.10789 8.26483C9.80722 8.24466 10.3413 7.57147 10.3095 6.8176C10.2828 6.18475 9.6788 5.6099 9.02778 5.60359C8.60564 5.59981 8.18349 5.60359 7.76135 5.60359Z" fill="white"/>
<path d="M39.988 10.7546C39.988 8.76278 39.9905 6.77095 39.9842 4.77912C39.9842 4.56103 40.0389 4.38958 40.1762 4.22191C42.807 1.00347 46.2083 -0.482832 50.3407 0.138668C54.5914 0.776557 57.5451 3.23609 59.0023 7.23739C61.3241 13.6125 57.1052 20.3028 50.5976 21.3869C46.3609 22.0929 42.868 20.6293 40.1635 17.3213C40.0325 17.1612 39.9829 16.9961 39.9842 16.7906C39.9905 14.7786 39.988 12.7666 39.988 10.7546ZM48.8162 16.1514C49.0895 16.1628 49.4061 16.1237 49.7189 16.0569C53.1368 15.3295 54.9512 11.4996 53.3707 8.35559C52.2327 6.09146 49.6477 4.9304 47.3425 5.64771C44.6875 6.47218 43.0803 9.31368 43.7403 12.0165C44.329 14.4319 46.4219 16.1527 48.8162 16.1502V16.1514Z" fill="white"/>
<path d="M75.8703 14.3638C76.7896 14.9047 77.7165 15.3661 78.6994 15.7077C79.9035 16.1262 81.1344 16.3065 82.4059 16.0872C82.753 16.0279 83.0861 15.922 83.376 15.7127C84.0868 15.1959 84.0016 14.3185 83.2018 13.9667C82.5635 13.6844 81.868 13.6402 81.1916 13.5116C79.5869 13.2053 77.9606 12.9986 76.4335 12.3632C76.0877 12.2195 75.9707 12.0569 75.972 11.6774C75.9898 8.22448 75.9872 4.77156 75.9745 1.31863C75.9745 1.0186 76.0775 0.896317 76.3433 0.797986C78.0153 0.182789 79.7458 0.0239468 81.5094 0.110932C84.0487 0.235736 86.2929 1.14593 88.3197 2.63223C88.9313 3.08102 88.9834 3.3798 88.5524 3.98743C87.8785 4.94048 87.2046 5.89353 86.5281 6.84533C86.195 7.31429 85.8631 7.38362 85.371 7.07981C84.0894 6.29064 82.7326 5.69561 81.2208 5.51534C80.5138 5.43088 79.8018 5.43214 79.0961 5.54433C78.8494 5.58341 78.6167 5.66536 78.412 5.80907C77.9085 6.16457 77.9009 6.76086 78.4095 7.1088C78.8545 7.41262 79.3644 7.58155 79.873 7.74921C80.8839 8.08328 81.9443 8.18666 82.9755 8.42492C84.3437 8.74008 85.6889 9.11576 86.86 9.9314C88.532 11.0962 89.4819 12.6531 89.5327 14.7156C89.5722 16.3254 89.2657 17.8243 88.204 19.0988C87.2516 20.2423 85.989 20.8902 84.5573 21.1928C80.7796 21.992 77.1914 21.5281 73.8536 19.5149C73.626 19.3775 73.5892 19.3081 73.7837 19.0812C74.8696 17.8142 75.5015 16.3342 75.794 14.7042C75.8041 14.6437 75.8181 14.5845 75.8308 14.5239C75.8397 14.4849 75.8512 14.4458 75.8715 14.3638H75.8703Z" fill="white"/>
<path d="M86.9821 21.1297C87.4208 20.8499 87.8594 20.5725 88.2422 20.2196C89.5633 18.9992 90.1736 17.4537 90.3147 15.7052C90.4101 14.5202 90.2982 13.349 89.8239 12.2485C89.1119 10.5995 87.8632 9.45108 86.2586 8.6657C86.0742 8.57619 85.9979 8.4766 86.0081 8.27112C86.0157 8.09715 86.064 8.01772 86.2446 7.98621C86.6184 7.92065 86.8994 7.70004 87.1143 7.39622C87.8607 6.34358 88.6096 5.29346 89.3471 4.23577C89.8227 3.55502 89.6726 2.66753 89.0102 2.162C88.2422 1.57454 87.4297 1.05515 86.5599 0.626532C86.49 0.591234 86.3997 0.579888 86.3552 0.481557C86.4747 0.364317 86.6311 0.375663 86.7799 0.375663C91.5926 0.375663 96.404 0.373142 101.217 0.375663C101.756 0.375663 101.997 0.630314 101.999 1.17744C102 2.38262 102 3.58906 101.999 4.79424C101.999 5.34136 101.738 5.60232 101.186 5.60232C98.3317 5.60358 95.4771 5.60232 92.6238 5.60232C91.9029 5.60232 91.6943 5.81285 91.6931 6.53898C91.6931 6.78355 91.6931 7.02938 91.6931 7.27394C91.6931 7.92696 91.9308 8.16648 92.5819 8.16648C95.0244 8.16648 97.4658 8.16648 99.9083 8.16648C100.001 8.16648 100.094 8.16396 100.187 8.169C100.561 8.18917 100.835 8.44004 100.837 8.81067C100.845 10.1381 100.847 11.4669 100.837 12.7943C100.833 13.2141 100.542 13.4473 100.07 13.4486C97.762 13.4499 95.4529 13.4486 93.1451 13.4486C92.9086 13.4486 92.6709 13.4448 92.4344 13.4486C91.9804 13.4574 91.7083 13.7222 91.6956 14.1747C91.6867 14.4811 91.6918 14.7874 91.6943 15.0938C91.6994 15.6396 91.9588 15.8955 92.5157 15.8955C95.3385 15.8968 98.1626 15.8955 100.985 15.8955C101.078 15.8955 101.171 15.8943 101.264 15.8955C101.722 15.9056 101.995 16.1678 101.997 16.6229C102.003 17.9 102.003 19.177 101.997 20.454C101.995 20.9091 101.723 21.1751 101.26 21.1751C96.5515 21.1777 91.8418 21.1764 87.1334 21.1751C87.0863 21.1751 87.0317 21.194 86.9834 21.1234L86.9821 21.1297Z" fill="white"/>
<path d="M75.1786 7.22984C75.1786 9.05904 75.1849 10.887 75.1773 12.7162C75.1684 14.761 74.6687 16.662 73.3857 18.3009C72.0761 19.975 70.3163 20.9306 68.2399 21.3189C65.9906 21.7399 63.7883 21.5836 61.6827 20.6293C60.3221 20.0128 59.2185 19.0863 58.3716 17.8584C58.2305 17.6542 58.2165 17.5117 58.3678 17.2949C61.3114 13.078 61.0838 7.48071 57.8134 3.49706C57.5998 3.2361 57.3786 2.97641 57.1306 2.74823C56.9297 2.56291 56.8573 2.36499 56.8738 2.10152C56.8929 1.78635 56.8738 1.46867 56.8789 1.15225C56.8865 0.663113 57.1548 0.398377 57.6494 0.397116C58.9998 0.394595 60.3489 0.395855 61.6992 0.397116C62.3248 0.397116 62.5613 0.629076 62.5613 1.24301C62.5613 5.02244 62.5613 8.80313 62.5613 12.5826C62.5613 13.3276 62.6757 14.0449 63.0661 14.7005C63.7832 15.9069 65.2544 16.5372 66.7141 16.2586C68.1801 15.9775 69.1923 14.9526 69.4288 13.5217C69.486 13.1763 69.4962 12.8309 69.4962 12.4842C69.4962 8.75523 69.4962 5.02622 69.4962 1.29848C69.4962 1.08291 69.4962 0.867339 69.6335 0.683284C69.7861 0.479058 69.9946 0.397116 70.2502 0.397116C71.6412 0.399637 73.0323 0.397116 74.4233 0.399637C74.9217 0.399637 75.1773 0.660592 75.1773 1.16233C75.1799 3.18567 75.1773 5.20776 75.1773 7.2311L75.1786 7.22984Z" fill="white"/>
<path d="M17.6474 16.5901C18.053 17.4222 18.5642 18.1218 19.1287 18.7849C19.2571 18.9362 19.2673 19.0661 19.1249 19.2123C18.6239 19.7329 18.2437 20.3393 17.8814 20.957C17.7796 21.131 17.6652 21.1978 17.4643 21.1865C17.1261 21.1688 16.7853 21.1852 16.4458 21.1777C16.1712 21.1714 15.9614 21.0289 15.8762 20.7818C15.7846 20.5158 15.6994 20.2019 15.9169 19.9712C16.7828 19.0535 17.3613 17.997 17.5813 16.754C17.5876 16.715 17.6105 16.6797 17.6461 16.5901H17.6474Z" fill="white"/>
<path d="M17.4936 12.8637C17.1413 11.9547 16.6327 11.2097 15.9448 10.5895C15.8762 10.5277 15.8622 10.4533 15.8635 10.3688C15.8635 10.2566 15.8736 10.1432 15.8609 10.0322C15.8202 9.66035 15.9296 9.36032 16.1686 9.05272C17.3181 7.57271 17.3346 5.9074 16.9112 4.18283C16.7484 3.51972 16.4585 2.91335 16.044 2.37001C15.9105 2.19604 15.8482 2.02207 15.8597 1.80776C15.8724 1.5632 15.8558 1.31737 15.8673 1.0728C15.8851 0.665612 16.1445 0.404658 16.5577 0.402136C17.8865 0.395833 19.2165 0.38953 20.5452 0.404658C21.0309 0.4097 21.392 0.666873 21.6654 1.06524C23.4214 3.6231 25.1812 6.17718 26.9409 8.73125C26.9816 8.7905 27.0211 8.84975 27.063 8.90774C27.3644 9.32754 27.6568 9.32628 27.9543 8.8964C29.7205 6.3335 31.4904 3.77438 33.2464 1.20391C33.6279 0.646703 34.111 0.378184 34.7977 0.392051C35.9929 0.416004 37.1881 0.397094 38.3833 0.399615C38.9161 0.399615 39.1831 0.66057 39.1831 1.18752C39.1831 7.59289 39.1831 13.9983 39.1831 20.4036C39.1831 20.9331 38.9225 21.1827 38.3808 21.184C37.979 21.184 37.5365 21.2835 37.1868 21.1487C36.8423 21.0163 36.752 20.5372 36.5295 20.2233C36.1022 19.6182 35.6407 19.0459 35.0888 18.5492C34.9032 18.3828 34.8727 18.2605 35.1448 18.166C36.218 17.7915 37.0572 16.1943 36.8092 15.1341C36.4723 13.6982 35.3406 12.633 33.9623 12.6304C31.7142 12.6267 30.4402 14.853 31.1713 16.5927C31.2171 16.7023 31.2641 16.8108 31.3188 16.9368C31.1649 16.9015 31.1255 16.7919 31.0937 16.691C30.9322 16.1817 30.5457 15.946 30.0524 15.8451C26.4946 15.1202 23.2663 15.8022 20.4079 18.0638C19.9552 18.4219 19.9489 18.4257 19.589 17.963C18.9367 17.1247 18.3773 16.2372 18.1458 15.1845C18.0365 14.6891 18.0378 14.1886 18.1242 13.6919C18.2997 12.696 19.0855 12.0102 20.2337 11.8325C21.1352 11.6925 22.1906 12.1968 22.5987 13.0149C22.9191 13.6591 22.9662 14.3613 22.5987 14.9879C22.2211 15.6295 21.2153 16.0733 20.4257 15.6686C19.8827 15.39 19.6132 14.7256 19.795 14.1508C19.9361 13.7058 20.3519 13.4385 20.7868 13.4965C20.9762 13.5217 21.0881 13.6188 21.1288 13.7965C21.167 13.963 21.1136 14.0966 20.9673 14.1937C20.8656 14.2617 20.7563 14.3248 20.6711 14.4105C20.5617 14.5227 20.5477 14.6639 20.624 14.8063C20.7016 14.9513 20.8199 14.9942 20.9839 14.979C21.598 14.921 22.0812 14.5 22.0125 13.7512C21.9617 13.1889 21.3081 12.609 20.7041 12.6216C19.5013 12.6468 18.5972 13.7991 18.91 14.9538C19.1567 15.864 19.7505 16.4527 20.7016 16.6595C20.9419 16.7112 21.195 16.6973 21.4035 16.6229C22.1232 16.367 22.8937 16.159 23.3502 15.4757C23.5663 15.1517 23.6286 14.7521 23.6414 14.3651C23.7062 12.4792 22.7157 11.1794 20.7957 10.9803C19.4759 10.8441 18.4485 11.448 17.7046 12.5271C17.6411 12.6191 17.5877 12.7187 17.4974 12.8662L17.4936 12.8637Z" fill="white"/>
<path d="M35.1143 19.8994C35.2707 19.9183 35.4054 19.9851 35.4093 20.1502C35.4118 20.3091 35.2948 20.415 35.1346 20.4175C34.9604 20.42 34.8485 20.3292 34.8549 20.1364C34.8612 19.9674 34.9706 19.917 35.1143 19.9006V19.8994Z" fill="white"/>
<path d="M26.1081 28.9307V25.0302H27.948C28.8037 25.0302 29.2691 25.6038 29.2691 26.2871C29.2691 26.9704 28.7974 27.5389 27.948 27.5389H26.946V28.9307H26.1081ZM28.4146 26.2883C28.4146 25.9606 28.1603 25.7626 27.831 25.7626H26.946V26.809H27.831C28.1603 26.809 28.4146 26.6098 28.4146 26.2883Z" fill="white"/>
<path d="M32.8522 28.9307L32.0792 27.5452H31.465V28.9307H30.6284V25.0302H32.4682C33.2884 25.0302 33.7957 25.5622 33.7957 26.2871C33.7957 26.9716 33.3532 27.346 32.9285 27.4456L33.8199 28.9307H32.8522ZM32.9349 26.282C32.9349 25.9606 32.6806 25.7614 32.3513 25.7614H31.4663V26.814H32.3513C32.6806 26.814 32.9349 26.6161 32.9349 26.282Z" fill="white"/>
<path d="M35.0659 26.983C35.0659 25.808 35.9331 24.9659 37.1245 24.9659C38.316 24.9659 39.1768 25.808 39.1768 26.983C39.1768 28.1579 38.3096 29 37.1245 29C35.9395 29 35.0659 28.1579 35.0659 26.983ZM38.316 26.983C38.316 26.2518 37.8493 25.7021 37.1245 25.7021C36.3998 25.7021 35.9268 26.2518 35.9268 26.983C35.9268 27.7141 36.3921 28.2638 37.1245 28.2638C37.8569 28.2638 38.316 27.7078 38.316 26.983Z" fill="white"/>
<path d="M40.6009 28.9307V25.0302H42.1521C43.3842 25.0302 44.2399 25.808 44.2399 26.9779C44.2399 28.1478 43.3842 28.9307 42.1585 28.9307H40.6021H40.6009ZM43.3842 26.9779C43.3842 26.2934 42.9595 25.7614 42.1572 25.7614H41.4375V28.1995H42.1521C42.9303 28.1995 43.3842 27.6435 43.3842 26.9779Z" fill="white"/>
<path d="M45.6692 27.3687V25.0289H46.5185V27.3447C46.5185 27.8881 46.8364 28.2625 47.4442 28.2625C48.052 28.2625 48.3648 27.8881 48.3648 27.3447V25.0289H49.2205V27.3687C49.2205 28.3331 48.642 29 47.4455 29C46.249 29 45.6704 28.3331 45.6704 27.3687H45.6692Z" fill="white"/>
<path d="M50.6433 26.983C50.6433 25.7778 51.5576 24.9659 52.7426 24.9659C53.6034 24.9659 54.1044 25.4286 54.3816 25.919L53.6619 26.2694C53.4966 25.9543 53.1431 25.7021 52.7413 25.7021C52.0217 25.7021 51.5029 26.2455 51.5029 26.983C51.5029 27.7204 52.0217 28.2638 52.7413 28.2638C53.1419 28.2638 53.4966 28.0129 53.6619 27.6965L54.3816 28.0406C54.1044 28.526 53.6034 29 52.7426 29C51.5576 29 50.6433 28.1818 50.6433 26.983Z" fill="white"/>
<path d="M56.6271 28.9307V25.7614H55.4764V25.0302H58.6145V25.7614H57.4701V28.9307H56.6271Z" fill="white"/>
<path d="M59.9852 28.9307V25.0302H60.8218V28.9307H59.9852Z" fill="white"/>
<path d="M62.2447 26.983C62.2447 25.808 63.1118 24.9659 64.3032 24.9659C65.4947 24.9659 66.3555 25.808 66.3555 26.983C66.3555 28.1579 65.4883 29 64.3032 29C63.1182 29 62.2447 28.1579 62.2447 26.983ZM65.4947 26.983C65.4947 26.2518 65.028 25.7021 64.3032 25.7021C63.5785 25.7021 63.1055 26.2518 63.1055 26.983C63.1055 27.7141 63.5709 28.2638 64.3032 28.2638C65.0356 28.2638 65.4947 27.7078 65.4947 26.983Z" fill="white"/>
<path d="M70.493 28.9307L68.6175 26.3867V28.9307H67.7809V25.0302H68.6417L70.4638 27.4809V25.0302H71.3004V28.9307H70.493Z" fill="white"/>
<path d="M72.6432 28.381L73.1034 27.7318C73.3806 28.018 73.8104 28.2638 74.3534 28.2638C74.8187 28.2638 75.0374 28.0596 75.0374 27.8314C75.0374 27.1532 72.7729 27.6272 72.7729 26.1598C72.7729 25.5105 73.3387 24.9722 74.2643 24.9722C74.8899 24.9722 75.4087 25.1588 75.7978 25.5156L75.3324 26.1358C75.0145 25.8433 74.5886 25.7084 74.1881 25.7084C73.8346 25.7084 73.6337 25.8597 73.6337 26.0942C73.6337 26.7081 75.8932 26.2921 75.8932 27.7482C75.8932 28.4617 75.3744 29 74.3177 29C73.5574 29 73.0144 28.7491 72.6432 28.381Z" fill="white"/>
</g>
<defs>
<clipPath id="clip0_10_242">
<rect width="102" height="29" fill="white"/>
</clipPath>
</defs>
</svg>
