<svg xmlns="http://www.w3.org/2000/svg" viewBox="0 0 114.82 105.13" fill="#0000f8" xmlns:v="https://vecta.io/nano"><path d="M0 54.62c.05 0 .12-.09.14-.15 1.49-4.83 4.63-7 10.11-7h8.28v-1.32-13.66A8.58 8.58 0 0 1 25.85 24a14.91 14.91 0 0 1 2.68-.19H39.4h1.3c0-.48.06-.84.06-1.2V9.05c0-5.44 3.9-9 9.84-9h54.27c6.08 0 9.95 3.54 9.95 9.1q0 19.77 0 39.53c0 5.41-3.91 9-9.81 9h-12.4v1.11 13.66c0 5.3-3.89 8.88-9.69 8.93h-7.51-1.35v14.46c0 5-2.44 7.9-7.72 9.18a1.08 1.08 0 0 0-.18.11H7.85c-.24-.07-.47-.16-.72-.22a9 9 0 0 1-6.59-5.43C.33 99 .18 98.46 0 98zm55.53-27.5h-27c-4.07 0-6.29 2-6.3 5.78v39.32C22.22 76 24.43 78 28.5 78h54.16c4 0 6.21-2 6.22-5.62V32.76c0-3.62-2.24-5.64-6.21-5.64zm-37 23.77H9.87c-4 0-6.16 2-6.16 5.66q0 19.76 0 39.52c0 3.64 2.2 5.66 6.16 5.66h54.37c3.88 0 6.14-2.06 6.15-5.59V82.49c0-.33 0-.66-.06-1.11h-1.51q-20.07 0-40.13 0a14.44 14.44 0 0 1-2.79-.19 8.57 8.57 0 0 1-7.36-8.6V52.27zm74.08 3.36h12.46c3.81 0 6-2 6-5.57q0-19.86 0-39.73c0-3.51-2.24-5.54-6.06-5.55H50.56c-3.88 0-6.12 2.07-6.13 5.62v13.65c0 .33 0 .66.07 1h29.56V6.83h33.36V31.5v7.49A5.35 5.35 0 0 1 102 44.1a5.44 5.44 0 0 1-5.63-4.72 5.19 5.19 0 0 1 4.8-5.41 20.61 20.61 0 0 1 2.49 0V17H77.88v6.72h4.78c6.09 0 9.94 3.54 10 9.11v21.42zm11-44H77.85v3.25h25.78zm.07 28.75a1.71 1.71 0 0 0-1.86-1.66 1.67 1.67 0 1 0 1.86 1.66zM73.36 54l-29.5 13.5a2.09 2.09 0 0 1-3-1.71v-27a1.67 1.67 0 0 1 2.42-1.37l30.08 13.77a1.49 1.49 0 0 1 0 2.81zm-28.89 9.39L68.1 52.57 44.47 41.75zM36.5 33.91h-6.41a.41.41 0 0 0-.43.39v11.89a1.27 1.27 0 0 1-1.32 1.21H27a1 1 0 0 1-1.07-1h0q0-6 0-12c0-2.59 1.38-3.86 4.17-3.86h6.39 0a.41.41 0 0 1 .42.39v2.58a.41.41 0 0 1-.41.4zm48.62 23.71h-3.58V54.3h3.58zm-3.56 3.47h3.58v3.27h-3.58zm-.02 10.08v-3.26h3.58v3.26zM26 50.94h3.52v3.24H26zM26 61v-3.27h3.54V61zm1.78 33.92v3.38H16.67V95H9.24a1.69 1.69 0 0 1-1.76-1.61v-.13a1.69 1.69 0 0 1 1.76-1.62h7.37v-3.4h11.15v3.31h37.07a1.69 1.69 0 0 1 1.76 1.62v.13a1.69 1.69 0 0 1-1.76 1.62zm-5.53-3.29h0a1.7 1.7 0 0 0-1.76 1.62h0a1.7 1.7 0 0 0 1.76 1.62h0A1.7 1.7 0 0 0 24 93.25h0a1.7 1.7 0 0 0-1.75-1.62zM7.46 61v-3.28H11V61zm3.59 6.76H7.46v-3.24h3.59zm-3.58 3.51h3.58v3.24H7.47zm40.75-62.8h0A1.7 1.7 0 0 1 50 6.84h18.55a1.7 1.7 0 0 1 1.77 1.63h0a1.7 1.7 0 0 1-1.77 1.62H50a1.7 1.7 0 0 1-1.78-1.62zm22.14 6.78h0a1.71 1.71 0 0 1-1.78 1.63H50a1.7 1.7 0 0 1-1.77-1.63h0A1.7 1.7 0 0 1 50 13.62h18.58a1.71 1.71 0 0 1 1.78 1.63z"/></svg>