<svg xmlns="http://www.w3.org/2000/svg" viewBox="0 0 105.71 105.61" fill="#0000f8" xmlns:v="https://vecta.io/nano"><path d="M54.36 0l2 .53a11.4 11.4 0 0 1 5.76 18.23l-.81.95 1.59.25a8.25 8.25 0 0 1 7 8v13c0 1.35-.64 2-2 2h-30c-1.39 0-2-.61-2-2V28.07a8.36 8.36 0 0 1 7.8-8.22l.73-.06a5.35 5.35 0 0 0-.3-.46C37.78 12.14 41.49 1.91 51 .16a1.4 1.4 0 0 0 .38-.16zm-10 39.56v-4.62c0-1.2.68-1.94 1.72-1.93a1.71 1.71 0 0 1 1.68 1.87v1.13 3.54H58v-4.36a2.9 2.9 0 0 1 .14-1.11 1.54 1.54 0 0 1 1.85-1 1.6 1.6 0 0 1 1.41 1.69v4.78h5.1V28.24a5 5 0 0 0-5.33-5.1q-8.3 0-16.6 0a5 5 0 0 0-5.32 5.21v10.41.83zm17-28a8.52 8.52 0 0 0-17-.09 8.52 8.52 0 0 0 17 .09zM1.12 105.61A2.53 2.53 0 0 1 0 103.22c0-3.75.18-7.5 0-11.24-.26-4.7 2.54-9 8.6-9.56a11.34 11.34 0 0 1-3.16-10.56 11.1 11.1 0 0 1 4.48-6.81 12.19 12.19 0 0 1 15.64 1.08c4 3.91 5.15 10.76 0 16.29l1.65.26a8.21 8.21 0 0 1 6.85 7.75q.12 6.66 0 13.3c0 .64-.66 1.26-1 1.88zm29.6-3.34V90.51a5 5 0 0 0-5.2-4.69q-8.4 0-16.81 0a5 5 0 0 0-5.22 5.1v6.7 4.62h5.09v-4.69a1.68 1.68 0 0 1 1.72-1.83 1.7 1.7 0 0 1 1.7 1.86v1.14 3.59h10.21V97.9a2.9 2.9 0 0 1 .14-1.11 1.55 1.55 0 0 1 1.85-1 1.6 1.6 0 0 1 1.41 1.69v4.83zM17 82.51A8.256 8.256 0 1 0 17.2 66a8.26 8.26 0 1 0-.2 16.51zm55.68 23.1a2.53 2.53 0 0 1-1.09-2.39c0-3.75.19-7.5 0-11.24-.25-4.7 2.55-9 8.61-9.56A11.31 11.31 0 0 1 77 71.86a11.13 11.13 0 0 1 4.47-6.81 12.2 12.2 0 0 1 15.65 1.08c4 3.91 5.15 10.76 0 16.29l1.65.26a8.21 8.21 0 0 1 6.85 7.75q.12 6.66 0 13.3c0 .64-.66 1.26-1 1.88zm7.46-3.35v-4.79a1.701 1.701 0 1 1 3.4.09v4.67h10.22v-4.42c0-1.31.61-2.06 1.66-2.09s1.74.75 1.75 2.11v4.41h5.09V90.32a4.89 4.89 0 0 0-5-4.5q-8.52 0-17 0a5 5 0 0 0-5.13 5v5.16 6.31zm17-27.92a8.52 8.52 0 1 0-8.63 8.17 8.4 8.4 0 0 0 8.66-8.17zM45 82.51h-8.72c-1.54 0-2.14-.58-2.15-2.05V64.17c.07-9.49 7.87-17.42 17.58-17.94C61.62 45.7 70.2 52.58 71.44 62 72.86 72.86 64.26 82.41 53 82.5l-8 .01zm-7.47-3.3h15.15c9.6 0 16.63-7.88 15.33-17.1-1-7.1-7.58-12.59-15.09-12.6S38.75 55 37.74 62.1a18.41 18.41 0 0 0-.19 2.57l-.01 14.54zM99 53.24l-1 8.06a1.7 1.7 0 0 1-2 1.7c-1.07-.14-1.53-.95-1.39-2.26a77 77 0 0 0 .8-8.39c-.08-16.64-10.94-31.84-26.93-37.91-.33-.13-.67-.24-1-.39a1.62 1.62 0 0 1-1-2 1.73 1.73 0 0 1 2.18-1 18.57 18.57 0 0 1 1.88.71q23.95 10.4 27.93 35.49c.29 1.8.34 3.63.53 5.99zm-92.18-.57c.09-18.3 12-35 29.64-41.47a3 3 0 0 1 2 0 1.6 1.6 0 0 1 .74 1.41A2.54 2.54 0 0 1 38 14.1c-2.22 1.13-4.62 2-6.76 3.22-12 7.09-18.85 17.46-20.7 30.93a36.46 36.46 0 0 0 .5 12.1 5.66 5.66 0 0 1 .12.81A1.6 1.6 0 0 1 9.81 63a1.61 1.61 0 0 1-2-1.31c-.3-1.44-.55-2.9-.71-4.37s-.19-3.11-.28-4.65zm46.03 44.9a54.09 54.09 0 0 1-15.55-2.85c-1.18-.42-1.7-1.25-1.36-2.18a1.74 1.74 0 0 1 2.44-.93A44.32 44.32 0 0 0 53.62 94a43.88 43.88 0 0 0 13.44-2.33 3.5 3.5 0 0 1 1.33-.26 1.62 1.62 0 0 1 .26 3.2 64 64 0 0 1-6.75 1.81c-2.99.58-6.03.79-9.05 1.15zm2.69-41.46h5.53c1.25 0 2 .65 2 1.65s-.77 1.64-2 1.64H49.78c-1.25 0-2-.64-2-1.65s.76-1.63 2-1.64zM57.15 66h-4c-1.17 0-1.91-.66-1.92-1.63a1.69 1.69 0 0 1 1.89-1.66h8.09c1.18 0 1.92.66 1.93 1.63S62.35 66 61.19 66h-4.04zm-8.58 6.61h-4a1.65 1.65 0 1 1 0-3.28h8.2a1.66 1.66 0 1 1 0 3.29c-1.43.01-2.77-.01-4.2-.01zM46 66h-1.35c-1.24 0-2-.68-2-1.68s.76-1.6 1.93-1.62h3c1.16 0 1.9.7 1.89 1.67S48.7 66 47.52 66H46z"/></svg>