<svg xmlns="http://www.w3.org/2000/svg" viewBox="0 0 120.13 107.45" fill="#0000f8" xmlns:v="https://vecta.io/nano"><path d="M0 10.86C1.05 8.07 3.26 7.05 6.35 7.2h6.46c1.39 0 2.19.61 2.2 1.6s-.8 1.61-2.17 1.62H5.57c-1.55 0-2.05.45-2.05 1.86v65.6c0 1.53.47 1.89 2.37 1.89q45.45 0 90.92 0H98c1.28 0 2 .65 2 1.65S99.23 83 98 83h-8.68-1.6v2.56c0 3.36-1.43 4.66-5.13 4.67H66.13l.63 1.18L74 104.34c.19.35.54.75.48 1.07a3 3 0 0 1-.78 1.73 1.54 1.54 0 0 1-2.1-.24 5 5 0 0 1-.72-1.09l-8.16-14.65a1.64 1.64 0 0 0-1.72-.94q-8.56 0-17.13 0a1.66 1.66 0 0 0-1.71.94l-8.15 14.65a6.31 6.31 0 0 1-.58.93 1.71 1.71 0 0 1-2.19.48 1.42 1.42 0 0 1-.84-1.9 6.34 6.34 0 0 1 .48-1l7.2-12.92.59-1.12c-.53 0-.93-.06-1.33-.06H22.07c-3.53 0-4.95-1.33-4.95-4.6V83h-1.28c-3.17 0-6.34-.09-9.5 0S1 82.14 0 79.35zm84.21 72.22H20.64v2.33c0 1.59 0 1.59 1.72 1.59h60.06.82c.69 0 1-.26 1-.9l-.03-3.02zm7.73-53.36c12.17.21 21.35 7.39 23.16 18.19 1 5.82-.71 11.17-4.64 15.86-1.27 1.51-1.31 1.47-.26 3.15q4.36 6.93 8.73 13.87c1.51 2.41 1.74 4.82-.13 7.16a7 7 0 0 1-11-.34c-1.14-1.63-2.13-3.34-3.19-5l-6.54-10.44a1.21 1.21 0 0 0-1.46-.63c-13.31 2.1-25.23-5.73-27-18C68 43 75 33.66 85.54 30.67a31.81 31.81 0 0 1 4-.8 20.6 20.6 0 0 1 2.4-.15zm.36 3.22C81.43 33 72.86 41 72.9 51.07c0 9.78 8.82 17.62 19.73 17.6 10.62 0 19.17-8.09 19.19-18.12.02-9.55-8.94-17.64-19.52-17.61zm14.22 34.61l-5.43 2.89c.12.22.23.45.37.67l9 14.33a3.34 3.34 0 0 0 3.54 1.77 2.87 2.87 0 0 0 2-4.61l-8.25-13.13z"/><path d="M32.23 38.6l5.71-3a1.6 1.6 0 0 0 .53-1.22 5.25 5.25 0 0 1 3.45-5.08 5.9 5.9 0 0 1 6.32.89 4.72 4.72 0 0 1 1.91 4.22 1.28 1.28 0 0 0 .85 1.4l5.43 2.79a6.72 6.72 0 0 1 5.38-1.28 1.26 1.26 0 0 0 .91-.47l8.72-11.21a1.35 1.35 0 0 0 0-1.21 5 5 0 0 1 .65-5.95 5.94 5.94 0 0 1 6.22-1.74 5.29 5.29 0 0 1 4.09 4.63c.41 3.43-3 6.4-6.74 5.77a1.33 1.33 0 0 0-1.51.61Q70 33.2 65.73 38.6a1 1 0 0 0-.13 1.4 4.93 4.93 0 0 1-.81 6.19 6.26 6.26 0 0 1-6.44 1.37 5.26 5.26 0 0 1-3.67-5.14 1.41 1.41 0 0 0-1-1.57l-4.49-2.33a1.32 1.32 0 0 0-1.56 0 5.92 5.92 0 0 1-6.58 0 1.32 1.32 0 0 0-1.56 0 95.79 95.79 0 0 1-4.39 2.28 1.61 1.61 0 0 0-1.1 1.73 5.45 5.45 0 0 1-5.13 5.37 5.79 5.79 0 0 1-6.42-4.36 5.36 5.36 0 0 1 4.07-6.11c1.91-.52 3.48-.22 5.71 1.17zm12.14-2.32a2.27 2.27 0 0 0 2.29-2.16 2.33 2.33 0 0 0-4.65.06 2.3 2.3 0 0 0 2.36 2.1zm30-14.48a2.21 2.21 0 0 0 2.21 2.2A2.28 2.28 0 0 0 79 21.91a2.31 2.31 0 0 0-4.6-.11zM60.48 44.68a2.26 2.26 0 0 0 2.34-2.1 2.31 2.31 0 0 0-2.32-2.15 2.28 2.28 0 0 0-2.32 2.13 2.2 2.2 0 0 0 2.3 2.12zm-30-2.08a2.29 2.29 0 0 0-2.28-2.17 2.34 2.34 0 0 0-2.37 2.1 2.26 2.26 0 0 0 2.3 2.15 2.24 2.24 0 0 0 2.37-2.08zm12.2-35.38V3.91A4 4 0 0 1 46.75.07C50.5 0 54.26 0 58 .06a4.07 4.07 0 0 1 4.16 4v3.15h36.76c4 0 5.92 1.77 5.93 5.4q0 6.84 0 13.68a4.19 4.19 0 0 1-.17 1.37 1.44 1.44 0 0 1-1.8 1 3.52 3.52 0 0 1-1.47-1.3c-.19-.24-.07-.7-.07-1.05V12.54c0-1.68-.45-2.09-2.29-2.09H21.49a11.11 11.11 0 0 1-1.29 0 1.58 1.58 0 0 1-1.61-1.56A1.54 1.54 0 0 1 20 7.28a6.78 6.78 0 0 1 1.28-.06h21.4zm16 0a21 21 0 0 0 0-3 1.41 1.41 0 0 0-1-.9q-5.22-.09-10.42 0a1.28 1.28 0 0 0-1 .79 24.52 24.52 0 0 0 0 3.1zM39 60.83V50.28c0-1.79.59-2.33 2.51-2.34h5.87c1.64 0 2.3.6 2.31 2.09q0 10.81 0 21.64c0 1.44-.66 2-2.21 2q-3.1 0-6.21 0c-1.61 0-2.25-.61-2.26-2.13L39 60.83zm3.62-9.6v19.19h3.47V51.23zm23.2 13.68v6.67c0 1.58-.63 2.13-2.34 2.14q-3 0-6.09 0c-1.57 0-2.22-.61-2.23-2q0-6.72 0-13.44c0-1.43.64-2 2.24-2q3.11 0 6.21 0c1.6 0 2.19.54 2.21 2v6.63zm-7-5.39v10.9h3.44v-10.9zm-35.98 5.29v-6.35c0-1.72.58-2.23 2.47-2.24h5.86c1.74 0 2.35.57 2.36 2.12q0 6.61 0 13.23c0 1.57-.64 2.14-2.35 2.15q-3 0-6.09 0c-1.57 0-2.22-.58-2.24-2l-.01-6.91zM30 70.44v-10.9h-3.5v10.9zm44.84.06h5c1.37 0 2.15.62 2.13 1.63s-.77 1.58-2.08 1.59q-3.22 0-6.43 0c-1.44 0-2.07-.62-2.09-1.92v-4.19A1.67 1.67 0 0 1 73 65.78a1.69 1.69 0 0 1 1.83 1.81l.01 2.91zm16.81-35.03a18.57 18.57 0 0 1 10.44 2.91c1 .66 1.29 1.6.69 2.39a1.82 1.82 0 0 1-2.59.29 14.46 14.46 0 0 0-8.13-2.34c-7 .13-12.54 5.16-12.89 11.63-.34 6.24 4.83 11.72 11.67 12.46 9.67 1 17.15-7.63 13.86-16.06-.16-.41-.34-.81-.46-1.22a1.58 1.58 0 0 1 1-2 1.77 1.77 0 0 1 2.23.9 13 13 0 0 1 1.53 7.2c-.66 7.48-5.81 12.93-13.83 14.28-9.4 1.59-18.32-4.41-19.39-13.21-1-7.95 4-14.46 12.36-16.65a28.38 28.38 0 0 1 3.51-.58z"/></svg>