<svg xmlns="http://www.w3.org/2000/svg" viewBox="0 0 110.92 107.48" fill="#0000f8" xmlns:v="https://vecta.io/nano"><path d="M93 0l3 .85c8.24 2.91 13.46 8.52 14.66 16.93 1.51 10.51-4 18.6-12.88 22.52l-.86.37a41.64 41.64 0 0 1 0 25.93 21.63 21.63 0 0 1 12.52 12 20.49 20.49 0 0 1 .9 12.79c-1.89 8.29-9.56 14.83-18 15.94A22.24 22.24 0 0 1 68.8 93.81a45.36 45.36 0 0 1-26.56 0c-.7 1.27-1.31 2.54-2.06 3.72-7 11-22.8 13.27-32.76 4.68-1.06-.92-1.18-2-.29-2.68.7-.55 1.52-.46 2.43.31A19 19 0 0 0 18.3 104c10.45 2.08 21-5.51 21.85-15.79.85-9.7-5.61-17.87-15.48-19.57S4.73 74.13 3.46 83.85a17.71 17.71 0 0 0 1.48 9.94c.51 1.12.23 2-.69 2.41S2.5 96.19 2 95.06c0-.07-.07-.13-.1-.19a20.65 20.65 0 0 1 4.4-23.26 22.27 22.27 0 0 1 7.12-4.69l.72-.33A41.17 41.17 0 0 1 14 40.88a51.67 51.67 0 0 1-5.71-3.49C1.43 31.84-1.38 24.69.64 16.21S8.51 2.36 17.32.23c.24-.06.46-.15.7-.23h7.58c.23.08.45.18.69.24a21.67 21.67 0 0 1 14.27 10.08c.6 1 1.08 2 1.63 3.1a45.08 45.08 0 0 1 26.55 0c.1-.08.14-.09.16-.12.16-.35.32-.7.49-1A21.42 21.42 0 0 1 82.13.94C83.2.57 84.32.31 85.42 0zM43.1 16.47c0 .41.06.69.11 1a20.44 20.44 0 0 1-4 16.09c-1 1.35-1.95 1.66-2.85 1s-.77-1.53.23-2.84a17.48 17.48 0 0 0 1.17-19.79 18.6 18.6 0 0 0-18.34-8.82A18.21 18.21 0 0 0 3.35 19.16c-1 7.63 3.93 15.47 11.58 18.39a18.7 18.7 0 0 0 15.5-.8c1.23-.6 2.13-.44 2.61.48s.08 1.7-1.15 2.33a20.35 20.35 0 0 1-8.25 2.31c-2.11.1-4.23 0-6.53 0a37.85 37.85 0 0 0 .12 23.8c7.7-1.26 14.41.48 19.89 5.8s7.28 11.9 6 19.23c8 2.68 18 2.41 24.77 0-1.29-7.33.51-13.84 6-19.16s12.25-7.09 19.83-5.84c2.75-7.2 2.63-17.36 0-24.07-7.55 1.24-14.27-.48-19.76-5.78s-7.33-11.88-6-19.36a41.62 41.62 0 0 0-24.86-.02zm64.62 4.41c0-9.89-8.33-17.94-18.57-17.94S70.7 11 70.71 20.9s8.38 18 18.57 18 18.44-8.15 18.44-18.02zm-18.51 83.44c10.16 0 18.48-8 18.51-17.88s-8.3-18-18.49-18-18.54 8.12-18.52 18 8.34 17.88 18.5 17.88zm-70.77-26.5a8.64 8.64 0 0 1 1.12.46l10.29 5.77c2.07 1.17 2.07 3.06 0 4.23Q24.72 91.17 19.56 94c-2 1.11-3.71.15-3.71-2.11q0-5.88 0-11.76a2.26 2.26 0 0 1 2.59-2.31zm8.67 8.34l-7.95-4.46v8.93zM48.52 59l.38 7.27.13 2.83c0 1.17-.55 1.85-1.55 1.87s-1.63-.63-1.69-1.78l-.47-8.93-.06-1.21c-.6 0-1.14-.05-1.66-.09a3.1 3.1 0 0 1-3.06-3.08q-.06-4.2 0-8.41a3.12 3.12 0 0 1 3.28-3.07 39.22 39.22 0 0 1 5.84 0c3.69.52 6.91-.78 10.15-2.07 1.43-.57 2.81-1.28 4.2-1.94.89-.42 1.79-.77 1.79-2.06 0-.36.87-1 1.37-1a2.34 2.34 0 0 1 1.52.89c.25.29.2.87.2 1.31q0 12.15 0 24.29a4.33 4.33 0 0 1-.11 1.18 1.48 1.48 0 0 1-1.64 1.09 1.36 1.36 0 0 1-1.43-1.31c0-.88-.48-1.22-1.16-1.54s-1.61-.79-2.4-1.21a1.54 1.54 0 0 1-.8-2.2 1.64 1.64 0 0 1 2.24-.62c.64.28 1.27.6 2 .95V43.48l-12.48 4.63v7c0 .21.41.51.69.6 1.06.34 2.15.59 3.21.92a1.59 1.59 0 0 1 1.29 2.07 1.7 1.7 0 0 1-2.23.91 1.17 1.17 0 0 1-.2-.06c-2.32-1.16-4.76-.55-7.35-.55zm-4.67-11.43v8.14h5.93v-8.14zM13.54 26a9.45 9.45 0 0 1-3.62-5.8 11.9 11.9 0 0 1 .69-6.7 1.63 1.63 0 0 1 3-.48 9.19 9.19 0 0 0 4.82 3.22c.3.08.62.13 1 .2l.3-.93a6 6 0 0 1 8.68-3.49 1.65 1.65 0 0 0 1.93-.02c.24-.16.49-.4.74-.42.61 0 1.39-.17 1.79.13a1.89 1.89 0 0 1 .54 1.62 6.15 6.15 0 0 1-1.07 2.49 5.25 5.25 0 0 0-.86 2.84c-.53 5.53-3.18 9.7-8.56 11.89-4.56 1.86-9 1.29-13.34-.9a1.53 1.53 0 0 1-.89-1.84 1.56 1.56 0 0 1 1.59-1.18c1.06-.08 2.13-.19 3.19-.29zM17 28.22v.22a18.27 18.27 0 0 0 2.34-.15c5.46-1 9.07-5.29 8.91-11.33a3.2 3.2 0 0 0-.08-1c-.29-.76-2-1.54-3.07-1.43a2.68 2.68 0 0 0-2.37 2.12 7.31 7.31 0 0 0-.06 1.05c0 1.58-.61 2.13-2.26 2.08a12.46 12.46 0 0 1-6.67-2.17c-.21-.14-.44-.26-.73-.43A6.59 6.59 0 0 0 16.17 24c.51.33 1.08.57 1.6.87a1.56 1.56 0 0 1 .16 2.82c-.29.16-.6.31-.93.53zm72.42-6.1v2.19 6.72c0 1.37-.55 2-1.6 2.06s-1.64-.68-1.65-2v-7.67-1.3h-2.14c-1.09 0-1.79-.66-1.78-1.57S83 19 84.06 19h2.11v-4a6 6 0 0 1 2-4.79c1.9-1.67 4.2-1.69 6.53-1.42a1.37 1.37 0 0 1 1.3 1.57 1.45 1.45 0 0 1-1.46 1.42c-.72.05-1.45 0-2.17 0a2.76 2.76 0 0 0-2.88 2.69c-.07 1.19 0 2.38 0 3.57v.9h2.14c1.18 0 1.91.61 1.93 1.55s-.69 1.58-2 1.6zm-.2 53.09h6.49c3.27 0 5 1.72 5 4.86q0 6.32 0 12.61c0 3.13-1.81 4.88-5 4.88h-13c-3.22 0-5-1.74-5-4.88q0-6.3 0-12.6c0-3.16 1.76-4.85 5-4.87zm8.28 11.22v-6.31c0-1.41-.34-1.75-1.78-1.76q-6.51 0-13 0c-1.44 0-1.76.33-1.77 1.77v12.51c0 1.4.38 1.77 1.78 1.77h13c1.4 0 1.77-.38 1.78-1.78zm-8.3 4.69a4.79 4.79 0 0 1-4.88-4.73 4.9 4.9 0 0 1 9.79 0 4.78 4.78 0 0 1-4.91 4.73zm0-3.16a1.59 1.59 0 0 0 1.66-1.56 1.61 1.61 0 0 0-1.6-1.63 1.63 1.63 0 0 0-1.67 1.57 1.59 1.59 0 0 0 1.6 1.66z"/></svg>