<svg xmlns="http://www.w3.org/2000/svg" viewBox="0 0 104.53 103.69" fill="#0000f8" xmlns:v="https://vecta.io/nano"><path d="M64 103.69L32.21 85.88l-14.37-8a4.33 4.33 0 0 0-1.95-.49H3.16C1 77.33 0 76.41 0 74.33V63.5c0-.9.25-1.62 1.22-1.88s1.9.53 1.91 1.81v7.6 3.2h54V3.11h-54v1.3q0 25.26 0 50.53a8.16 8.16 0 0 1 0 1.21 1.45 1.45 0 0 1-1.56 1.33A1.43 1.43 0 0 1 0 56.08v-1Q0 29.26 0 3.43C0 .77.81 0 3.55 0h53.33c2.61 0 3.48.85 3.48 3.41v8a1.39 1.39 0 0 0 .84 1.43Q81.88 24.39 102.54 36c2.17 1.21 2.51 2.4 1.28 4.47q-4 6.8-8.1 13.58c-.25.42-.59 1-1 1.08a2.41 2.41 0 0 1-1.72-.24 1.28 1.28 0 0 1-.29-1.82l1.6-2.73 6.89-11.58-40.84-22.89v7.35c-.17 2 .55 3 2.32 3.88 3.76 1.91 7.37 4.07 11 6.13a8 8 0 0 1 .89.53 1.37 1.37 0 0 1 .46 2 1.46 1.46 0 0 1-2 .63 12.94 12.94 0 0 1-1.56-.82l-10.1-5.67c-.29-.17-.59-.3-1-.52v3.24c0 .28.37.61.66.78 1.36.8 2.76 1.55 4.14 2.34 1.06.6 1.39 1.42.93 2.24s-1.39 1-2.53.36l-3.24-1.79v3.28 5.78a1.25 1.25 0 0 0 .76 1.26l16.8 9.4c2 1.15 2.4 2.35 1.21 4.35q-7.94 13.35-15.9 26.71c-1.15 1.94-2.41 2.26-4.41 1.14L39.76 77.76a2.6 2.6 0 0 0-1.15-.4l-15 .19 40.89 22.9.73-1.19L88.52 60.1c.16-.26.31-.53.48-.79a1.6 1.6 0 0 1 2.15-.63 1.48 1.48 0 0 1 .57 2.11c-.11.21-.24.41-.36.61q-12 20.16-24 40.29a12.19 12.19 0 0 1-1.94 2zm-3.6-53.78v1.35q0 11.49 0 23c0 2.13-1 3.1-3.19 3.1H45.75l-.06.21 14.78 8.28 16-26.9zM30.2 68.65H12.25c-2.41 0-3.32-.9-3.32-3.26q0-17.36 0-34.73c0-2.3.91-3.2 3.26-3.2q18 0 35.9 0c2.43 0 3.33.89 3.33 3.25v34.73c0 2.28-1 3.21-3.27 3.21zm18-38.07H12.12v35h36.1zM44.67 7.87a5.33 5.33 0 0 1 5.41 5.3 5.45 5.45 0 0 1-10.9-.07 5.38 5.38 0 0 1 5.49-5.23zm0 3a2.28 2.28 0 0 0-2.33 2.24 2.33 2.33 0 0 0 2.36 2.23 2.29 2.29 0 0 0 2.26-2.21 2.24 2.24 0 0 0-2.31-2.22zm45.9 30.5a5.45 5.45 0 0 1-10.9 0 5.45 5.45 0 0 1 10.9 0zm-3.15.08a2.29 2.29 0 0 0-2.25-2.31 2.38 2.38 0 0 0-2.37 2.22 2.32 2.32 0 0 0 2.28 2.28 2.24 2.24 0 0 0 2.34-2.19zM22 14.63h-9c-1.27 0-1.95-.51-2-1.44s.7-1.59 2-1.59h18c1.21 0 1.94.61 1.94 1.53s-.7 1.5-1.93 1.5zm-5.75 6.25H12.7a1.52 1.52 0 0 1-1.7-1.45 1.54 1.54 0 0 1 1.67-1.57h7.09a1.58 1.58 0 0 1 1.73 1.52 1.56 1.56 0 0 1-1.73 1.5h-3.51zm15.18 28.36a15.62 15.62 0 0 1 3.29-1.58 4.48 4.48 0 0 1 5 2.14l4.48 7.18a2.52 2.52 0 0 1-2.3 4Q30 61 18.21 61a2.52 2.52 0 0 1-2.44-3.73q3.32-7.19 6.7-14.35a3.28 3.28 0 0 1 6 0l2.96 6.32zm-6-5.42l-6.56 14H32zm15.66 14.1l-4.12-6.58a1.66 1.66 0 0 0-2.19-.57c-.78.4-1.67 2.08-1.4 2.69l1.86 3.95a1.07 1.07 0 0 0 .76.49l5.12.02zM30.7 39.87a4.91 4.91 0 0 1 9.82.09 4.9 4.9 0 0 1-5 4.73 4.84 4.84 0 0 1-4.82-4.82zm6.68.07a1.74 1.74 0 0 0-1.79-1.73 1.69 1.69 0 0 0-1.74 1.64 1.72 1.72 0 0 0 1.71 1.79 1.79 1.79 0 0 0 1.82-1.7z"/></svg>