<svg xmlns="http://www.w3.org/2000/svg" viewBox="0 0 110.56 107.71" fill="#0000f8" xmlns:v="https://vecta.io/nano"><path d="M0 91.5a17.17 17.17 0 0 1 3.74-7.7A15.68 15.68 0 0 1 29.21 86a1.38 1.38 0 0 0 .81.7 10.93 10.93 0 0 1 9.44 8 6 6 0 0 0 4.95-5.25c.16-2.68 0-5.38 0-8.2H42.6a2.19 2.19 0 0 1-2.45-2.11l-.89-6.31h-9.54a6.77 6.77 0 0 1-6.82-7 7.09 7.09 0 0 1 2-4.43l10.42-11.81a2.06 2.06 0 0 0 .55-1.79 106.5 106.5 0 0 1-1.27-11.49C34.42 22.81 39.54 11.68 50.08 3c1-.86 2.25-1.52 3.32-2.34 1.31-1 2.48-.84 3.83 0A39.78 39.78 0 0 1 72 17.59a40.87 40.87 0 0 1 3.44 24.53c-.3 1.91-.56 3.82-.75 5.74a2.23 2.23 0 0 0 .47 1.47l10.58 12.08a6.54 6.54 0 0 1 .9 8.08 6.72 6.72 0 0 1-5.92 3.26h-9.46l-.86 6.07c-.26 1.78-.92 2.34-2.78 2.35h-1.51c0 2.83-.13 5.57 0 8.28.16 2.45 2.3 4.59 4.9 5.27l.31-.83a10.51 10.51 0 0 1 8.5-7.07 2.22 2.22 0 0 0 1.71-1.17c5.35-8.87 19.6-11 26.84.32 5.67 8.9-.69 19.14-9.8 21.3l-1.87.43H64.35a1.5 1.5 0 0 0-.24-.2 2.12 2.12 0 0 1-1.2-2.45 2.23 2.23 0 0 1 2.39-1.56h29.15a14.35 14.35 0 0 0 4.73-.82c4.56-1.67 7.56-6.35 7-10.53-.65-4.93-6.25-11-13.52-9.42a11.09 11.09 0 0 0-7.09 4.64c.61.32 1.16.57 1.67.89a12.74 12.74 0 0 1 1.47 1.06c1.26 1.07 1.49 2.31.65 3.29s-2.12 1-3.48-.13l-.25-.21a6.46 6.46 0 0 0-6.52-.86 6.11 6.11 0 0 0-3.94 5.13c-.33 2.45-1.13 3-3.63 2.7-5.26-.68-10.08-5.14-9.81-11.22.1-2.23 0-4.47 0-6.73h-13v7.42A11 11 0 0 1 38 99.27 2.2 2.2 0 0 1 35.4 97a6.08 6.08 0 0 0-3.93-5.57 6.37 6.37 0 0 0-6.93 1.15c-1.22 1-2.45 1-3.33 0s-.7-2.24.52-3.21c1-.78 2.08-1.42 3.18-2.17-.21-.27-.4-.55-.63-.82a11.24 11.24 0 0 0-17.1 0c-2.3 2.61-3.49 5.53-2.51 9a11.4 11.4 0 0 0 11 8.07h23.74 6.16a2 2 0 0 1 2.06 1.55 2 2 0 0 1-.91 2.29l-.51.36H13.82c-.24-.07-.47-.15-.71-.2-6.37-1.16-10.55-4.79-12.57-10.79-.22-.66-.36-1.34-.54-2zm67.48-23c0-.28.08-.48.11-.69q1.88-13.69 3.74-27.4a36.47 36.47 0 0 0-4.23-23 1.51 1.51 0 0 0-1.1-.61q-10.68-.06-21.37 0a1.57 1.57 0 0 0-1.14.65 36.35 36.35 0 0 0-4.28 22.67l3.17 23.24.73 5.17zm4.37 0h8.6a2.65 2.65 0 0 0 2.64-1.47 2.46 2.46 0 0 0-.56-2.9q-3.07-3.46-6.11-6.95l-2.61-3-1.96 14.37zm-35.1-14.24l-9 10.3a2.21 2.21 0 0 0-.25 2.58 2.53 2.53 0 0 0 2.35 1.41H36h2.7zm7.47 22.67h22.11l.58-4.12H43.64zm19.7-64.42a33.43 33.43 0 0 0-8.17-7.65 1.1 1.1 0 0 0-1 0c-1.63 1.26-3.28 2.51-4.8 3.9-1.18 1.08-2.19 2.34-3.44 3.7zm-9.29 95.2l-.51-.35a2 2 0 0 1-.89-2.37 2.15 2.15 0 0 1 4.09 0 2 2 0 0 1-.88 2.36l-.51.36zm11.44-70.77a10.8 10.8 0 1 1-10.81-10.49 10.69 10.69 0 0 1 10.81 10.49zm-4.32.06a6.48 6.48 0 1 0-6.47 6.3 6.41 6.41 0 0 0 6.47-6.3z"/></svg>