<svg xmlns="http://www.w3.org/2000/svg" viewBox="0 0 107.77 104.58" fill="#0000f8" xmlns:v="https://vecta.io/nano"><path d="M107.77 15.11V75c-2 5.62-4.15 7.06-10.32 7.06H64.89v.35a53.85 53.85 0 0 1 2.66 5.32c.79 2.1 2 2.68 4.36 2.64A12.25 12.25 0 0 1 84.5 102c.08 1.69-.73 2.53-2.5 2.54H25.92c-1.85 0-2.69-.76-2.67-2.39a12.4 12.4 0 0 1 8.05-11.07 16.37 16.37 0 0 1 6.62-.81 1.23 1.23 0 0 0 1.35-.82c.66-1.39 1.4-2.74 2.1-4.11l1.7-3.34h-1.56Q25.27 82 9 82c-5.46 0-9-3.47-9-8.78V17c0-5.36 3.57-8.8 9.1-8.81h12l.14-.93A8 8 0 0 1 25.85.87 18.49 18.49 0 0 1 28.42 0h50.93c.23.07.46.15.7.21a8.25 8.25 0 0 1 6.38 6.22c.14.55.18 1.13.27 1.72h.89 11.65a8.37 8.37 0 0 1 8.33 6.46 2.28 2.28 0 0 0 .2.5zm-25.33 52.5v-1q0-28.9 0-57.8c0-3.1-1.67-4.7-4.88-4.7H30.2c-3.2 0-4.87 1.6-4.87 4.71v58.79zM4.22 71.79v2.34a4.1 4.1 0 0 0 3.58 3.73 11.8 11.8 0 0 0 1.46.07h89.23a10.27 10.27 0 0 0 1.47-.07 3.82 3.82 0 0 0 3.36-2.86 18.74 18.74 0 0 0 .31-3.24zm8.5-51.26v47.06H21V20.53zm82.34 47.08V20.54h-8.33v47.07zM80 100.44c0-.23-.08-.39-.13-.55a8.36 8.36 0 0 0-8.2-5.55q-17.52 0-35 0H35.2c-3.45.19-6.78 2.94-7.33 6.07zm6.72-84h9.63c2.33 0 3 .64 3 2.92v48.23h4.23V16.92c0-3-1.7-4.64-4.83-4.65h-12zm-65.65-4.17H9c-3 0-4.74 1.67-4.74 4.64v50.66h4.18V19.12c0-2 .72-2.72 2.77-2.73h9.86zm43.13 78l-4-7.71a1.39 1.39 0 0 0-1-.47H48.58a1.15 1.15 0 0 0-1.19.76l-2.52 4.93-1.28 2.52zM53.85 12.12a7.07 7.07 0 0 1 1.64.94q7.34 7.59 14.6 15.25a1.88 1.88 0 0 1 0 2.84q-7.28 7.65-14.6 15.26a2.06 2.06 0 0 1-3.22 0Q45 38.79 37.67 31.15a1.89 1.89 0 0 1 0-2.85Q45 20.67 52.28 13.06a7.4 7.4 0 0 1 1.57-.94zm0 30l11.88-12.39-11.84-12.38L42 29.73zm.04 17.33H40.44a2.12 2.12 0 0 1-2.34-1.62 2 2 0 0 1 2.11-2.45h3.68 23.33c1.38 0 2.25.59 2.45 1.63.26 1.38-.72 2.44-2.33 2.45H53.89zm11.58-49.17a2 2 0 0 1-2.17 2 2.06 2.06 0 0 1-2-2 2.13 2.13 0 0 1 2.09-2 2.06 2.06 0 0 1 2.08 2zm8.45-.01a2 2 0 0 1-2.08 2 2.08 2.08 0 0 1-2.09-2 2.11 2.11 0 0 1 2.16-2.07 2 2 0 0 1 2.01 2.07z"/></svg>